<?xml version="1.0" encoding="UTF-8"?><svg id="Layer_1" xmlns="http://www.w3.org/2000/svg" viewBox="0 0 100 100"><defs><style>.cls-1{fill:#fff;}</style></defs><path class="cls-1" d="M76.06,59.72l-9.06-34.28c-.62-2.34-2.75-3.98-5.16-3.98h-23.68c-2.43,0-4.54,1.63-5.16,3.98l-9.06,34.28c-.62,2.32,.41,4.78,2.49,5.99l20.9,12.11c.83,.48,1.75,.72,2.68,.72s1.86-.24,2.68-.72h0l20.9-12.11c2.05-1.21,3.08-3.67,2.46-5.99Zm-41.3-25.6c.15-.54,.57-.63,.81-.63h0c.24,0,.66,.08,.81,.62l9.92,36.91c.12,.47-.14,.75-.3,.89s-.51,.3-.94,.06l-16.32-9.46c-.77-.44-1.15-1.36-.92-2.2l6.92-26.18Zm19.2,37.78c-.17-.14-.42-.41-.3-.89l9.92-36.91c.15-.54,.57-.62,.81-.62h0c.24,0,.66,.08,.81,.63l6.92,26.18c.23,.86-.15,1.76-.92,2.2l-16.33,9.46c-.41,.24-.75,.08-.92-.06Zm6.08-46.52c.44,0,.84,.2,1.12,.56,.27,.35,.36,.8,.24,1.22l-10.59,39.32c-.15,.54-.57,.62-.81,.62s-.66-.08-.81-.62l-10.59-39.32c-.12-.42-.03-.87,.24-1.22s.68-.56,1.12-.56h20.09Z"/></svg>